{"title":"Bad Grandpa 2013 TS XViD-VAiN [P2PDL]","uid":9336518,"size":1492339156,"categoryP":"video","categoryS":"movies","magnet":"?xt=urn:btih:a8b8751c42bb003bb68fd6fb1813e1e71c335c94&amp;dn=Bad+Grandpa+2013+TS+XViD-VAiN+%5BP2PDL%5D&amp;tr=udp%3A%2F%2Ftracker.openbittorrent.com%3A80&amp;tr=udp%3A%2F%2Fopen.demonii.com%3A1337&amp;tr=udp%3A%2F%2Ftracker.coppersurfer.tk%3A6969&amp;tr=udp%3A%2F%2Fexodus.desync.com%3A6969","seeders":0,"leechers":0,"uploader":"TeX","files":3,"time":1386864009,"description":"\n\nVAiN . P R E S E N T S\n\nBad.Grandpa.2013.TS.XViD-VAiN\n\niMDB: 86-year-old Irving Zisman takes a trip from Nebraska to North Carolina to take his 8 year-old grandson, Billy, back to his real father\n\nT E C H N i C A L . i N F O\n\nFormat: AVI\nFormat/Info: Audio Video Interleave\nFile size: 1.37 GiB\nDuration: 1h 24mn\nOverall bit rate: 2 328 Kbps\nWriting application: VirtualDubMod 1.5.10.2 (build 2540/release)\nWriting library: VirtualDubMod build 2540/release\n\nVideo\nID: 0\nFormat: MPEG-4 Visual\nFormat profile: Advanced Simple@L5\nFormat settings, BVOP: 2\nFormat settings, QPel: No\nFormat settings, GMC: No warppoints\nFormat settings, Matrix: Default (MPEG)\nMuxing mode: Packed bitstream\nCodec ID: XVID\nCodec ID/Hint: XviD\nDuration: 1h 24mn\nBit rate: 2 190 Kbps\nWidth: 720 pixels\nHeight: 384 pixels\nDisplay aspect ratio: 1.875\nFrame rate: 25.000 fps\nColor space: YUV\nChroma subsampling: 4:2:0\nBit depth: 8 bits\nScan type: Progressive\nCompression mode: Lossy\nBits/(Pixel*Frame): 0.317\nStream size: 1.29 GiB (94%)\nWriting library: XviD 64\n\nAudio\nID: 1\nFormat: MPEG Audio\nFormat version: Version 1\nFormat profile: Layer 3\nMode: Joint stereo\nMode extension: MS Stereo\nCodec ID: 55\nCodec ID/Hint: MP3\nDuration: 1h 24mn\nBit rate mode: Constant\nBit rate: 128 Kbps\nChannel(s): 2 channels\nSampling rate: 48.0 KHz\nCompression mode: Lossy\nStream size: 77.1 MiB (5%)\nAlignment: Split accross interleaves\nInterleave, duration: 40 ms (1.00 video frame)\nInterleave, preload duration: 500 ms\n\nE N C O D E R S . N O T E S\n\nSOURCE: TROUBLEMAKER 720P / MILLENIUM!!!!\nSAMPLE: Yes\nADDED NOTE: video was ok on the troublemaker release. at times the blacks pretty blocky so tried our best to fix white and blacks. tried to level out the contrast and brightness, rotated a bit, tweaked rgb smoothed just a hint then upped the sharp for a decnt detail. overall it's just a cam. pretty watchable\n\nremember, unlike other encoders or release grps VAiN welcomes all honest feedback in the comments section. let it all out!!!\n\nwe don't need to add anymore inches to our e-peen 8===========================================D\n\nso don't feel like you hve to stroke our egos just cuz we are :whistle:\n\nv.6a.8 m.10 A Must SEE IMHO\n\nS C R E E N . S H O T S \n &lt;a href=&quot;\nhttp://i.imgur.com/0VXQqNc.png&quot; rel=&quot;nofollow&quot; target=&quot;_NEW&quot;&gt;\nhttp://i.imgur.com/0VXQqNc.png&lt;/a&gt; &lt;a href=&quot;\nhttp://i.imgur.com/c6kP0m1.png&quot; rel=&quot;nofollow&quot; target=&quot;_NEW&quot;&gt;\nhttp://i.imgur.com/c6kP0m1.png&lt;/a&gt; &lt;a href=&quot;\nhttp://i.imgur.com/AjZE36w.png&quot; rel=&quot;nofollow&quot; target=&quot;_NEW&quot;&gt;\nhttp://i.imgur.com/AjZE36w.png&lt;/a&gt;","torrent":{"xt":"urn:btih:a8b8751c42bb003bb68fd6fb1813e1e71c335c94","amp;dn":"Bad+Grandpa+2013+TS+XViD-VAiN+%5BP2PDL%5D","amp;tr":["udp%3A%2F%2Ftracker.openbittorrent.com%3A80","udp%3A%2F%2Fopen.demonii.com%3A1337","udp%3A%2F%2Ftracker.coppersurfer.tk%3A6969","udp%3A%2F%2Fexodus.desync.com%3A6969"],"infoHash":"a8b8751c42bb003bb68fd6fb1813e1e71c335c94","infoHashBuffer":{"type":"Buffer","data":[168,184,117,28,66,187,0,59,182,143,214,251,24,19,225,231,28,51,92,148]},"announce":[],"urlList":[]}}